<?xml version="1.0" encoding="utf-8"?>
<!-- Generator: Adobe Illustrator 26.2.1, SVG Export Plug-In . SVG Version: 6.00 Build 0)  -->
<svg version="1.1" id="Layer_1" xmlns="http://www.w3.org/2000/svg" xmlns:xlink="http://www.w3.org/1999/xlink" x="0px" y="0px"
	 viewBox="0 0 1512 1154" style="enable-background:new 0 0 1512 1154;" xml:space="preserve">
<style type="text/css">
	.st0{fill:#4EA528;fill-opacity:0.6;}
	.st1{fill:#E3F7DE;}
</style>
<path class="st0" d="M1512,48v1086.3c-243.3,50-480.2-6.8-754.5-42.7c-220.7-28.9-465.6-44.2-757.5,20.8V12
	c150.2-33.7,451.5,11.1,757.5,44.9C1045.8,88.7,1338.2,110.7,1512,48z"/>
<path class="st1" d="M1512,25.8v1096.7c-0.2-0.1-0.4-0.1-0.7-0.2c-292.8-76.3-535.9-61-753.8-30.8
	c-275.9,38.3-511.7,100.5-757.5,31.1V26.1c154.1,89,458.1,65.8,757.5,30.8c318.9-37.4,632.5-88.3,753.8-31.4
	C1511.6,25.6,1511.8,25.7,1512,25.8z"/>
</svg>
