<svg id="Layer_1" data-name="Layer 1" xmlns="http://www.w3.org/2000/svg" viewBox="0 0 1512 1153.89"><defs><style>.cls-1{fill:#4ea528;fill-opacity:0.6;}.cls-2{fill:#e3f7de;}</style></defs><path class="cls-1" d="M754.5,56.88c306-33.8,607.3-78.6,757.5-44.9v1100.4c-291.9-65-536.8-49.7-757.5-20.8-274.3,35.9-511.2,92.7-754.5,42.7V48C173.8,110.68,466.2,88.68,754.5,56.88Z"/><path class="cls-2" d="M.7,25.48c121.3-56.9,434.9-6,753.8,31.4,299.4,35,603.4,58.2,757.5-30.8v1096.5c-245.8,69.4-481.6,7.2-757.5-31.1-217.9-30.2-461-45.5-753.8,30.8a6.37,6.37,0,0,0-.7.2V25.78A4.88,4.88,0,0,1,.7,25.48Z"/></svg>