<svg id="Layer_1" data-name="Layer 1" xmlns="http://www.w3.org/2000/svg" viewBox="0 0 1512 697.1"><defs><style>.cls-1{fill:#4ea528;fill-opacity:0.6;}.cls-2{fill:#e3f7de;}</style></defs><path class="cls-1" d="M1512.26,83.56l-.13,576c-181.75,37.35-539.2-25.39-744.1-52.21C603.16,585.76,217.92,579.94-.13,628.5L0,42c112.2-25.17,539.57,2.68,768.16,27.93C983.52,93.65,1382.43,130.4,1512.26,83.56Z"/><path class="cls-2" d="M1512.26,67l-.13,583.75a3.34,3.34,0,0,0-.52-.15c-218.73-57-580.81-65.89-743.58-43.33C561.93,635.89,183.49,688-.13,636.12L0,52.52C115.12,119,544.5,96.06,768.16,69.91c238.22-27.94,653-45.64,743.58-3.14A3.78,3.78,0,0,1,1512.26,67Z"/></svg>