<svg id="Layer_1" data-name="Layer 1" xmlns="http://www.w3.org/2000/svg" viewBox="0 0 1512 1154"><defs><style>.cls-1{fill:#4ea528;fill-opacity:0.6;}.cls-2{fill:#e3f7de;}</style></defs><path class="cls-1" d="M1512,48V1134.3c-243.3,50-480.2-6.8-754.5-42.7-220.7-28.9-465.6-44.2-757.5,20.8V12C150.2-21.7,451.5,23.1,757.5,56.9,1045.8,88.7,1338.2,110.7,1512,48Z"/><path class="cls-2" d="M1512,25.8V1122.5a6.37,6.37,0,0,0-.7-.2c-292.8-76.3-535.9-61-753.8-30.8C481.6,1129.8,245.8,1192,0,1122.6V26.1c154.1,89,458.1,65.8,757.5,30.8,318.9-37.4,632.5-88.3,753.8-31.4A4.88,4.88,0,0,1,1512,25.8Z"/></svg>