<svg id="Layer_1" data-name="Layer 1" xmlns="http://www.w3.org/2000/svg" xmlns:xlink="http://www.w3.org/1999/xlink" viewBox="0 0 1512 560.37"><defs><style>.cls-1{fill:none;}.cls-2{fill:#4ea528;fill-opacity:0.6;}.cls-3{fill:#e3f7de;}.cls-4{clip-path:url(#clip-path);}</style><clipPath id="clip-path"><rect class="cls-1" x="1628.48" y="-138.15" width="190.8" height="521.94"/></clipPath></defs><path class="cls-2" d="M1512.13,91.7V522.83c-181.75,37.35-539.2-25.4-744.1-52.21C603.16,449,217.92,443.21-.13,491.77V50.1C112.07,24.93,539.44,52.78,768,78,983.39,101.79,1382.3,138.54,1512.13,91.7Z"/><path class="cls-3" d="M1512.13,75.14V514a5.27,5.27,0,0,0-.52-.14C1292.88,456.87,930.8,448,768,470.54,561.93,499.15,183.49,551.23-.13,499.38V60.66C115,127.14,544.37,104.2,768,78.05c238.22-27.94,653-45.64,743.58-3.14A3.78,3.78,0,0,1,1512.13,75.14Z"/><g class="cls-4"><path class="cls-2" d="M1955.43-78.63l-4.67,412.27c-126.69,107.65-253.26-35.21-364.53-17.73L1483.6-89.63C1671-183.46,1780.15-34.33,1955.43-78.63Z"/></g></svg>