<svg id="Layer_1" data-name="Layer 1" xmlns="http://www.w3.org/2000/svg" viewBox="0 0 1512 697.1"><defs><style>.cls-1{fill:#4ea528;fill-opacity:0.6;}.cls-2{fill:#e3f7de;}</style></defs><path class="cls-1" d="M744,69.89c228.59-25.25,656-53.1,768.16-27.93l.13,586.54c-218-48.56-603.29-42.74-768.16-21.15C539.2,634.17,181.75,696.91,0,659.56l-.13-576C129.7,130.4,528.61,93.65,744,69.89Z"/><path class="cls-2" d="M.39,66.77C91,24.27,505.75,42,744,69.91,967.63,96.06,1397,119,1512.13,52.52l.13,583.6C1328.65,688,950.2,635.89,744.1,607.27,581.33,584.71,219.25,593.6.52,650.6a3.34,3.34,0,0,0-.52.15L-.13,67A3.78,3.78,0,0,1,.39,66.77Z"/></svg>