<svg id="Layer_1" data-name="Layer 1" xmlns="http://www.w3.org/2000/svg" xmlns:xlink="http://www.w3.org/1999/xlink" viewBox="0 0 190.8 269.56"><defs><style>.cls-1{fill:none;}.cls-2{clip-path:url(#clip-path);}.cls-3{fill:#4ea528;fill-opacity:0.6;}.cls-4{fill:#e3f7de;}.cls-5{clip-path:url(#clip-path-2);}</style><clipPath id="clip-path"><rect class="cls-1" y="4.31" width="190.8" height="260.93" transform="translate(190.8 269.56) rotate(-180)"/></clipPath><clipPath id="clip-path-2"><rect class="cls-1" x="-222.24" y="4.31" width="190.8" height="260.93"/></clipPath></defs><g class="cls-2"><path class="cls-3" d="M335.48,52.84l5.34,162.75c-320.89-52.79-245.42,67.78-472.1-14l-5.07-137.81C-6.52,110.67,103-17.2,335.48,52.84Z"/><path class="cls-4" d="M-60.37,53.1C9.61-9.14,124.44,75.89,243.3,42.36l0,177.66C171.81,251.79,13,162.47-69.13,236.52c-.23.08-.38.08-.53.15S-107,128-60.89,53.32C-60.8,53.18-60.59,53.17-60.37,53.1Z"/></g><g class="cls-5"><path class="cls-3" d="M104.91,63.83,99.84,201.64c-226.68,81.73-151.21-38.84-472.09,14l5.33-162.75C-134.47-17.2-24.92,110.67,104.91,63.83Z"/><path class="cls-4" d="M29.45,53.32C75.6,128,38.22,236.67,38.22,236.67s-.3-.07-.53-.15c-82.12-74.05-240.94,15.27-312.46-16.5l0-177.66C-155.88,75.89-41-9.14,28.93,53.1,29.15,53.17,29.36,53.18,29.45,53.32Z"/></g></svg>