<?xml version="1.0" encoding="utf-8"?>
<!-- Generator: Adobe Illustrator 26.2.1, SVG Export Plug-In . SVG Version: 6.00 Build 0)  -->
<svg version="1.1" id="Layer_1" xmlns="http://www.w3.org/2000/svg" xmlns:xlink="http://www.w3.org/1999/xlink" x="0px" y="0px"
	 viewBox="0 0 1512 598" style="enable-background:new 0 0 1512 598;" xml:space="preserve">
<style type="text/css">
	.st0{fill:#FFE897;}
	.st1{fill:#E3F7DE;}
</style>
<path class="st0" d="M1194.8,519.1c-78.2,10.6-172.4,25.3-284.8,45.6c-421.2,76-832.6-0.6-910-16.6c-8.5-1.8-13-2.8-13-2.8
	s-1.6-4-4.5-11.2c4.5,7.5,7.1,11.6,7.1,11.6s3.6-0.6,10.4-1.7c68.5-10.7,464.7-68.1,896.5-40.3
	C1015.6,511.3,1114.1,516.1,1194.8,519.1z"/>
<path class="st0" d="M1512,43.2v48.6c-3.4,0.3-6.9,0.7-10.4,1.2c-118.1,17-437.6-9.8-759.5-33.1c316.2-39,627.5-79.9,756.9-22.7
	C1503.5,39.1,1507.8,41.2,1512,43.2z"/>
<path class="st1" d="M1512,91.9v428.3c-23.7,1.6-114.3,6.2-317.2-1.1c-80.7-2.9-179.2-7.8-298.3-15.4C464.7,476,68.5,533.3,0,544
	V41.4c144.2-21.7,444.2-3.1,742.1,18.5C1064,83.3,1383.5,110,1501.6,93C1505.1,92.5,1508.6,92.1,1512,91.9z"/>
<path class="st1" d="M0,544v4.1c-8.5-1.8-13-2.8-13-2.8s-1.6-4-4.5-11.2c4.5,7.5,7.1,11.6,7.1,11.6S-6.9,545.1,0,544z"/>
</svg>
