<?xml version="1.0" encoding="utf-8"?>
<!-- Generator: Adobe Illustrator 26.2.1, SVG Export Plug-In . SVG Version: 6.00 Build 0)  -->
<svg version="1.1" id="Layer_1" xmlns="http://www.w3.org/2000/svg" xmlns:xlink="http://www.w3.org/1999/xlink" x="0px" y="0px"
	 viewBox="0 0 1512 642" style="enable-background:new 0 0 1512 642;" xml:space="preserve">
<style type="text/css">
	.st0{fill:#4EA528;fill-opacity:0.6;}
	.st1{fill:#FFE897;}
</style>
<path class="st0" d="M1512,115.3v447.2c-13.8,5.4-39,14.3-77.2,24.1c-94.6,24.3-269.6,54.8-552.6,54.8c-261,0-465-25.9-595.2-49
	c-104.9-18.6-161.8-35.5-161.8-35.5S71,528.4,0,484.3v-471c280.1-30.9,496.2-3,759.8,32c200.3,26.5,428.2,57.2,732.5,69.1
	C1499,114.7,1505.6,115,1512,115.3z"/>
<path class="st1" d="M1512,47.5v551.3c-17.7-3.4-43.3-7.8-77.2-12.2c-103.6-13.7-284-28.4-547.1-18.2c-214.1,8.3-432,17.1-600.7,24
	c-139.4,5.7-245.2,10.2-287,11.9V49c318,59.3,513.8,23.4,759.8-3.7c188.7-20.8,407-36.5,732.5-0.1C1499,46,1505.6,46.7,1512,47.5z"
	/>
</svg>
