<svg width="1512" height="598" viewBox="0 0 1512 598" fill="none" xmlns="http://www.w3.org/2000/svg">
<path d="M-97.9995 37.169C107.5 242.669 1221.5 -85.3319 1499 37.1687C1776.5 159.669 1529.5 492.669 1529.5 492.669C1529.5 492.669 1377.5 480.288 910 564.669C442.499 649.051 -12.9989 545.298 -12.9989 545.298C-12.9989 545.298 -303.499 -168.331 -97.9995 37.169Z" fill="#FFE897"/>
<path d="M-10.4448 43.0502C276.554 -6.95098 1271.5 126.169 1501.55 93.0503C1731.61 59.9316 1518.55 519.67 1518.55 519.67C1518.55 519.67 1371.5 534.169 896.5 503.669C421.5 473.169 -10.4447 545.679 -10.4447 545.679C-10.4447 545.679 -297.444 93.0514 -10.4448 43.0502Z" fill="#E3F7DE"/>
</svg>
