<?xml version="1.0" encoding="utf-8"?>
<!-- Generator: Adobe Illustrator 26.2.1, SVG Export Plug-In . SVG Version: 6.00 Build 0)  -->
<svg version="1.1" id="Layer_1" xmlns="http://www.w3.org/2000/svg" xmlns:xlink="http://www.w3.org/1999/xlink" x="0px" y="0px"
	 viewBox="0 0 1512 1028" style="enable-background:new 0 0 1512 1028;" xml:space="preserve">
<style type="text/css">
	.st0{fill:#FFE897;}
	.st1{fill:#E3F7DE;}
</style>
<path class="st0" d="M1512,43.4v967.4c-242.6,44-479-6.5-752.5-38.4C538.3,946.6,292.8,933,0,991.3V11.1
	c149.5-30.8,452.2,9.4,759.5,39.6C1046.7,78.9,1337.9,98.5,1512,43.4z"/>
<path class="st1" d="M1512,22.2v977.3c-292.2-67.7-534.9-54-752.5-27.1c-276.3,34.2-512.4,89.7-758.6,27.4c-0.3-0.1-0.6-0.1-0.9-0.2
	V22.2c0.3,0.2,0.6,0.3,0.9,0.5c153.7,80,458.5,59.3,758.6,28C1077.2,17.5,1389.8-27.7,1512,22.2z"/>
</svg>
